<svg width="96" height="96" viewBox="0 0 96 96" fill="none" xmlns="http://www.w3.org/2000/svg">
<path d="M48 0C38.5065 0 29.2262 2.81515 21.3326 8.08946C13.4391 13.3638 7.28681 20.8603 3.6538 29.6312C0.0207976 38.402 -0.929762 48.0532 0.922328 57.3643C2.77442 66.6754 7.34597 75.2282 14.0589 81.9411C20.7718 88.654 29.3246 93.2256 38.6357 95.0777C47.9468 96.9298 57.598 95.9792 66.3688 92.3462C75.1397 88.7132 82.6362 82.5609 87.9105 74.6674C93.1848 66.7738 96 57.4935 96 48C96 41.6965 94.7584 35.4548 92.3462 29.6312C89.934 23.8076 86.3983 18.5161 81.9411 14.0589C77.4839 9.60166 72.1924 6.06601 66.3688 3.65378C60.5452 1.24156 54.3035 0 48 0ZM38.4 69.6V26.4L67.2 48L38.4 69.6Z" fill="url(#paint0_linear_298_1126)"/>
<defs>
<linearGradient id="paint0_linear_298_1126" x1="0" y1="0" x2="108.328" y2="16.8794" gradientUnits="userSpaceOnUse">
<stop stop-color="#DBA159"/>
<stop offset="1" stop-color="#F1BE7E"/>
</linearGradient>
</defs>
</svg>
